<mxfile host="app.diagrams.net" modified="2023-11-12T11:03:35.485Z" agent="Mozilla/5.0 (Windows NT 10.0; Win64; x64) AppleWebKit/537.36 (KHTML, like Gecko) Chrome/119.0.0.0 Safari/537.36" etag="Rtm7x6PFbxnJ14dgqsK_" version="22.1.0" type="device">
  <diagram name="Page-1" id="vb0pCUL0dqJEq8kVHsKW">
    <mxGraphModel dx="2537" dy="918" grid="1" gridSize="10" guides="1" tooltips="1" connect="1" arrows="1" fold="1" page="1" pageScale="1" pageWidth="850" pageHeight="1100" math="0" shadow="0">
      <root>
        <mxCell id="0" />
        <mxCell id="1" parent="0" />
        <mxCell id="q1YS7-ey--MEhMtVt5w--1" value="" style="ellipse;shape=cloud;whiteSpace=wrap;html=1;" vertex="1" parent="1">
          <mxGeometry x="-300" y="90" width="840" height="560" as="geometry" />
        </mxCell>
        <mxCell id="q1YS7-ey--MEhMtVt5w--2" value="Actor" style="shape=umlActor;verticalLabelPosition=bottom;verticalAlign=top;html=1;" vertex="1" parent="1">
          <mxGeometry x="-460" y="350" width="30" height="60" as="geometry" />
        </mxCell>
        <mxCell id="q1YS7-ey--MEhMtVt5w--8" style="edgeStyle=orthogonalEdgeStyle;rounded=0;orthogonalLoop=1;jettySize=auto;html=1;" edge="1" parent="1" source="q1YS7-ey--MEhMtVt5w--3" target="q1YS7-ey--MEhMtVt5w--33">
          <mxGeometry relative="1" as="geometry">
            <mxPoint x="240.0588235294117" y="355" as="targetPoint" />
          </mxGeometry>
        </mxCell>
        <mxCell id="q1YS7-ey--MEhMtVt5w--9" value="New data trigger training" style="edgeLabel;html=1;align=center;verticalAlign=middle;resizable=0;points=[];" vertex="1" connectable="0" parent="q1YS7-ey--MEhMtVt5w--8">
          <mxGeometry x="-0.1615" relative="1" as="geometry">
            <mxPoint y="-5" as="offset" />
          </mxGeometry>
        </mxCell>
        <mxCell id="q1YS7-ey--MEhMtVt5w--3" value="" style="sketch=0;pointerEvents=1;shadow=0;dashed=0;html=1;strokeColor=none;fillColor=#434445;aspect=fixed;labelPosition=center;verticalLabelPosition=bottom;verticalAlign=top;align=center;outlineConnect=0;shape=mxgraph.vvd.storage;" vertex="1" parent="1">
          <mxGeometry x="340" y="220" width="37.5" height="50" as="geometry" />
        </mxCell>
        <mxCell id="q1YS7-ey--MEhMtVt5w--28" style="edgeStyle=orthogonalEdgeStyle;rounded=0;orthogonalLoop=1;jettySize=auto;html=1;" edge="1" parent="1" source="q1YS7-ey--MEhMtVt5w--4" target="q1YS7-ey--MEhMtVt5w--2">
          <mxGeometry relative="1" as="geometry" />
        </mxCell>
        <mxCell id="q1YS7-ey--MEhMtVt5w--4" value="" style="sketch=0;pointerEvents=1;shadow=0;dashed=0;html=1;strokeColor=none;fillColor=#434445;aspect=fixed;labelPosition=center;verticalLabelPosition=bottom;verticalAlign=top;align=center;outlineConnect=0;shape=mxgraph.vvd.monitor;" vertex="1" parent="1">
          <mxGeometry x="-370" y="356.75" width="50" height="46.5" as="geometry" />
        </mxCell>
        <mxCell id="q1YS7-ey--MEhMtVt5w--25" style="edgeStyle=orthogonalEdgeStyle;rounded=0;orthogonalLoop=1;jettySize=auto;html=1;" edge="1" parent="1" source="q1YS7-ey--MEhMtVt5w--6" target="q1YS7-ey--MEhMtVt5w--4">
          <mxGeometry relative="1" as="geometry" />
        </mxCell>
        <mxCell id="q1YS7-ey--MEhMtVt5w--31" value="Prediction displayed in dashboard" style="edgeLabel;html=1;align=center;verticalAlign=middle;resizable=0;points=[];" vertex="1" connectable="0" parent="q1YS7-ey--MEhMtVt5w--25">
          <mxGeometry x="0.1439" y="1" relative="1" as="geometry">
            <mxPoint x="18" y="-1" as="offset" />
          </mxGeometry>
        </mxCell>
        <mxCell id="q1YS7-ey--MEhMtVt5w--6" value="Model" style="rounded=1;whiteSpace=wrap;html=1;" vertex="1" parent="1">
          <mxGeometry x="-130" y="350" width="120" height="60" as="geometry" />
        </mxCell>
        <mxCell id="q1YS7-ey--MEhMtVt5w--29" style="edgeStyle=orthogonalEdgeStyle;rounded=0;orthogonalLoop=1;jettySize=auto;html=1;" edge="1" parent="1" source="q1YS7-ey--MEhMtVt5w--15" target="q1YS7-ey--MEhMtVt5w--3">
          <mxGeometry relative="1" as="geometry" />
        </mxCell>
        <mxCell id="q1YS7-ey--MEhMtVt5w--15" value="Sensors" style="rounded=1;whiteSpace=wrap;html=1;" vertex="1" parent="1">
          <mxGeometry x="480" y="215" width="120" height="60" as="geometry" />
        </mxCell>
        <mxCell id="q1YS7-ey--MEhMtVt5w--17" style="edgeStyle=orthogonalEdgeStyle;rounded=0;orthogonalLoop=1;jettySize=auto;html=1;entryX=1;entryY=0.5;entryDx=0;entryDy=0;" edge="1" parent="1" source="q1YS7-ey--MEhMtVt5w--16" target="q1YS7-ey--MEhMtVt5w--15">
          <mxGeometry relative="1" as="geometry" />
        </mxCell>
        <mxCell id="q1YS7-ey--MEhMtVt5w--16" value="" style="points=[[0.145,0.145,0],[0.5,0,0],[0.855,0.145,0],[1,0.5,0],[0.855,0.855,0],[0.5,1,0],[0.145,0.855,0],[0,0.5,0]];shape=mxgraph.bpmn.event;html=1;verticalLabelPosition=bottom;labelBackgroundColor=#ffffff;verticalAlign=top;align=center;perimeter=ellipsePerimeter;outlineConnect=0;aspect=fixed;outline=standard;symbol=timer;" vertex="1" parent="1">
          <mxGeometry x="655" y="220" width="50" height="50" as="geometry" />
        </mxCell>
        <mxCell id="q1YS7-ey--MEhMtVt5w--20" value="Each day record new data &lt;br&gt;(consumption, weather)" style="text;html=1;align=center;verticalAlign=middle;resizable=0;points=[];autosize=1;strokeColor=none;fillColor=none;" vertex="1" parent="1">
          <mxGeometry x="610" y="280" width="160" height="40" as="geometry" />
        </mxCell>
        <mxCell id="q1YS7-ey--MEhMtVt5w--42" style="edgeStyle=orthogonalEdgeStyle;rounded=0;orthogonalLoop=1;jettySize=auto;html=1;entryX=0.5;entryY=1;entryDx=0;entryDy=0;" edge="1" parent="1" source="q1YS7-ey--MEhMtVt5w--32" target="q1YS7-ey--MEhMtVt5w--41">
          <mxGeometry relative="1" as="geometry" />
        </mxCell>
        <mxCell id="q1YS7-ey--MEhMtVt5w--43" value="Yes" style="edgeLabel;html=1;align=center;verticalAlign=middle;resizable=0;points=[];" vertex="1" connectable="0" parent="q1YS7-ey--MEhMtVt5w--42">
          <mxGeometry x="0.1507" y="1" relative="1" as="geometry">
            <mxPoint as="offset" />
          </mxGeometry>
        </mxCell>
        <mxCell id="q1YS7-ey--MEhMtVt5w--47" style="edgeStyle=orthogonalEdgeStyle;rounded=0;orthogonalLoop=1;jettySize=auto;html=1;" edge="1" parent="1" source="q1YS7-ey--MEhMtVt5w--32" target="q1YS7-ey--MEhMtVt5w--46">
          <mxGeometry relative="1" as="geometry" />
        </mxCell>
        <mxCell id="q1YS7-ey--MEhMtVt5w--49" value="No" style="edgeLabel;html=1;align=center;verticalAlign=middle;resizable=0;points=[];" vertex="1" connectable="0" parent="q1YS7-ey--MEhMtVt5w--47">
          <mxGeometry x="0.0576" y="-2" relative="1" as="geometry">
            <mxPoint as="offset" />
          </mxGeometry>
        </mxCell>
        <mxCell id="q1YS7-ey--MEhMtVt5w--32" value="" style="points=[[0.25,0.25,0],[0.5,0,0],[0.75,0.25,0],[1,0.5,0],[0.75,0.75,0],[0.5,1,0],[0.25,0.75,0],[0,0.5,0]];shape=mxgraph.bpmn.gateway2;html=1;verticalLabelPosition=bottom;labelBackgroundColor=#ffffff;verticalAlign=top;align=center;perimeter=rhombusPerimeter;outlineConnect=0;outline=none;symbol=none;gwType=exclusive;" vertex="1" parent="1">
          <mxGeometry x="90" y="445" width="50" height="50" as="geometry" />
        </mxCell>
        <mxCell id="q1YS7-ey--MEhMtVt5w--35" style="edgeStyle=orthogonalEdgeStyle;rounded=0;orthogonalLoop=1;jettySize=auto;html=1;" edge="1" parent="1" source="q1YS7-ey--MEhMtVt5w--33" target="q1YS7-ey--MEhMtVt5w--34">
          <mxGeometry relative="1" as="geometry" />
        </mxCell>
        <mxCell id="q1YS7-ey--MEhMtVt5w--33" value="Train model" style="rounded=1;whiteSpace=wrap;html=1;" vertex="1" parent="1">
          <mxGeometry x="298.75" y="330" width="120" height="60" as="geometry" />
        </mxCell>
        <mxCell id="q1YS7-ey--MEhMtVt5w--36" style="edgeStyle=orthogonalEdgeStyle;rounded=0;orthogonalLoop=1;jettySize=auto;html=1;" edge="1" parent="1" source="q1YS7-ey--MEhMtVt5w--34" target="q1YS7-ey--MEhMtVt5w--32">
          <mxGeometry relative="1" as="geometry" />
        </mxCell>
        <mxCell id="q1YS7-ey--MEhMtVt5w--37" value="Better or equal accuracy?" style="edgeLabel;html=1;align=center;verticalAlign=middle;resizable=0;points=[];" vertex="1" connectable="0" parent="q1YS7-ey--MEhMtVt5w--36">
          <mxGeometry x="0.0052" y="-2" relative="1" as="geometry">
            <mxPoint x="1" y="2" as="offset" />
          </mxGeometry>
        </mxCell>
        <mxCell id="q1YS7-ey--MEhMtVt5w--34" value="Test model" style="rounded=1;whiteSpace=wrap;html=1;" vertex="1" parent="1">
          <mxGeometry x="298.75" y="440" width="120" height="60" as="geometry" />
        </mxCell>
        <mxCell id="q1YS7-ey--MEhMtVt5w--44" style="edgeStyle=orthogonalEdgeStyle;rounded=0;orthogonalLoop=1;jettySize=auto;html=1;" edge="1" parent="1" source="q1YS7-ey--MEhMtVt5w--41" target="q1YS7-ey--MEhMtVt5w--6">
          <mxGeometry relative="1" as="geometry" />
        </mxCell>
        <mxCell id="q1YS7-ey--MEhMtVt5w--41" value="Deploy new version of model" style="rounded=1;whiteSpace=wrap;html=1;" vertex="1" parent="1">
          <mxGeometry x="55" y="350" width="120" height="60" as="geometry" />
        </mxCell>
        <mxCell id="q1YS7-ey--MEhMtVt5w--48" style="edgeStyle=orthogonalEdgeStyle;rounded=0;orthogonalLoop=1;jettySize=auto;html=1;" edge="1" parent="1" source="q1YS7-ey--MEhMtVt5w--46" target="q1YS7-ey--MEhMtVt5w--4">
          <mxGeometry relative="1" as="geometry" />
        </mxCell>
        <mxCell id="q1YS7-ey--MEhMtVt5w--46" value="Show warning / error in dashboard" style="rounded=1;whiteSpace=wrap;html=1;" vertex="1" parent="1">
          <mxGeometry x="-130" y="440" width="120" height="60" as="geometry" />
        </mxCell>
      </root>
    </mxGraphModel>
  </diagram>
</mxfile>
